<svg width="246" height="74" viewBox="0 0 246 74" fill="none" xmlns="http://www.w3.org/2000/svg">
<path fill-rule="evenodd" clip-rule="evenodd" d="M109.509 27.2182L120.997 26.0107L120.237 28.9128L111.732 29.8067L103.187 62.4233L90.4337 63.7638L91.1939 60.8617L100.964 59.8348L109.509 27.2182ZM194.75 49.9775L208.952 19.5048L211.718 19.7909L196.415 52.6247L176.475 54.7205L177.235 51.8185L194.75 49.9775ZM238.224 29.8765C239.446 25.1679 239.04 22.1583 237.403 20.4756L239.981 18.1257C242.279 20.4891 242.547 24.4499 241.19 29.6309L241.172 29.6999L238.814 36.3188L218.287 38.4763L219.047 35.5742L236.861 33.7019L238.224 29.8765ZM22.207 44.4134L25.7111 44.0451L31.4112 67.1451L41.6365 66.0704L46.7136 46.6899L49.6972 46.3763L43.8598 68.6589L28.7775 70.2441L23.7156 49.7303L18.046 71.372L3.80056 72.8693L9.63798 50.5867L12.6215 50.2731L7.54439 69.6536L15.8227 68.7836L22.207 44.4134ZM137.343 35.5511C138.568 35.0794 139.706 34.7349 140.744 34.5343L140.27 37.3936C139.495 37.5434 138.584 37.813 137.528 38.2195C136.442 38.6379 135.388 39.0897 134.367 39.5744C133.734 39.8852 133.145 40.1758 132.601 40.4464L127.513 59.8666L113.711 61.3173L118.146 44.3887L121.129 44.0751L117.455 58.1016L125.29 57.2781L130.101 38.9152L131.06 38.4331C131.871 38.0254 132.797 37.5663 133.838 37.0561L133.85 37.05L133.863 37.044C134.993 36.5065 136.154 36.009 137.343 35.5511ZM35.8298 51.9679L34.8175 52.0743L35.5778 49.1722L36.5901 49.0658L35.8298 51.9679ZM209.955 35.188C209.05 38.6429 208.778 41.354 209.061 43.3819C209.374 45.3225 210.333 46.653 211.942 47.4365C213.592 48.1937 216.134 48.4481 219.711 48.0722C221.349 47.9001 223.096 47.639 224.953 47.2876C226.825 46.9335 228.621 46.5484 230.34 46.1328C231.462 45.8615 232.454 45.6129 233.318 45.3868L234.636 39.5852L237.644 39.1709L235.762 47.4577L234.447 47.824C233.268 48.1524 231.794 48.53 230.031 48.9562C228.247 49.3875 226.392 49.7851 224.466 50.1494C222.526 50.5163 220.687 50.7917 218.951 50.9743C215.11 51.378 212.04 51.1468 209.884 50.1526L209.875 50.1487L209.866 50.1445C207.698 49.0924 206.411 47.2725 206.008 44.7487L206.006 44.739L206.005 44.7291C205.66 42.2761 206.008 39.1799 206.971 35.5016L209.955 35.188ZM51.0936 57.3909C50.2477 60.6198 50.5307 62.6199 51.564 63.7406C52.6155 64.8807 54.6516 65.4206 58.0304 65.0655C59.241 64.9383 60.4593 64.6995 61.6866 64.3495C62.9572 63.9873 64.1249 63.6004 65.192 63.1906C66.3075 62.725 67.1764 62.3338 67.8142 62.0151L68.9341 61.4556L69.4637 62.1765C69.6172 62.3853 69.9662 62.6723 70.6255 63.0045C71.1466 63.226 71.9169 63.3325 73.0126 63.2522L73.086 63.2468L73.1569 63.2486C73.6215 63.2605 74.3853 63.1883 75.5091 62.9929L75.5371 62.988L75.5649 62.9841C76.6757 62.8288 77.7283 62.6413 78.7236 62.4227L78.3393 65.2634C77.254 65.5019 76.1217 65.7033 74.9433 65.8687C73.7969 66.0671 72.8254 66.1785 72.0825 66.1681C70.7139 66.2615 69.5244 66.1395 68.5897 65.7312L68.5669 65.7212L68.5448 65.7102C68.1054 65.4905 67.7089 65.2536 67.377 64.9933C66.8108 65.2521 66.1705 65.53 65.4595 65.8265L65.4321 65.838L65.4045 65.8486C64.198 66.313 62.9045 66.7408 61.5262 67.1338C60.0938 67.5422 58.6746 67.82 57.2701 67.9676C53.4784 68.3661 50.5877 67.8279 48.9559 66.0583C47.306 64.2691 47.1502 61.3681 48.11 57.7045L51.0936 57.3909ZM140.931 47.9486C140.085 51.1775 140.368 53.1777 141.401 54.2983C142.453 55.4385 144.489 55.9784 147.867 55.6232C149.078 55.496 150.296 55.2572 151.524 54.9073C152.794 54.545 153.962 54.1581 155.029 53.7484C156.145 53.2827 157.013 52.8915 157.651 52.5728L158.771 52.0133L159.301 52.7342C159.454 52.943 159.803 53.23 160.463 53.5622C160.984 53.7838 161.754 53.8903 162.85 53.81L162.923 53.8046L162.994 53.8064C163.459 53.8182 164.222 53.746 165.346 53.5506L165.374 53.5458L165.402 53.5419C166.513 53.3866 167.565 53.1991 168.561 52.9804L168.176 55.8212C167.091 56.0596 165.959 56.261 164.78 56.4265C163.634 56.6249 162.662 56.7363 161.92 56.7259C160.551 56.8192 159.361 56.6973 158.427 56.2889L158.404 56.2789L158.382 56.2679C157.942 56.0482 157.546 55.8113 157.214 55.551C156.648 55.8099 156.008 56.0878 155.297 56.3842L155.269 56.3957L155.242 56.4063C154.035 56.8708 152.742 57.2985 151.363 57.6915C149.931 58.0999 148.512 58.3777 147.107 58.5253C143.315 58.9238 140.425 58.3857 138.793 56.6161C137.143 54.8269 136.987 51.9259 137.947 48.2622L140.931 47.9486Z" fill="#300219"/>
<path d="M0.19382 65.7823L11.1084 24.1191L23.7622 22.7892L29.719 45.1441L30.7313 45.0377L36.9222 21.406L48.1841 20.2223L37.2695 61.8855L24.6157 63.2154L18.9156 40.1154L17.84 40.2284L11.4557 64.5986L0.19382 65.7823Z" fill="#F4F6FF"/>
<path d="M52.1716 61.0374C48.5864 61.4142 46.1229 60.8751 44.7813 59.4203C43.4397 57.9654 43.2203 55.5148 44.1231 52.0685C44.768 49.6068 45.7264 47.6708 46.9983 46.2604C48.3123 44.8456 49.9461 43.7762 51.8995 43.0522C53.853 42.3282 56.1112 41.7717 58.6742 41.3826L65.1772 40.2802L65.5319 38.9263C65.8006 37.9006 65.6512 37.2181 65.0839 36.8788C64.5586 36.535 63.7055 36.4252 62.5245 36.5493C61.2591 36.6823 59.8143 36.8741 58.19 37.1246C56.5657 37.3751 54.9782 37.6417 53.4275 37.9244C51.8768 38.207 50.5159 38.4698 49.3448 38.7125L50.9469 31.4224C52.2032 31.0111 53.6704 30.5776 55.3484 30.122C57.0686 29.6619 58.836 29.2567 60.6505 28.9064C62.4758 28.5151 64.1688 28.2374 65.7294 28.0733C68.5554 27.7763 70.9001 27.8291 72.7635 28.2317C74.6691 28.6299 75.9503 29.5326 76.6071 30.9398C77.3061 32.3425 77.2955 34.4183 76.5754 37.1671L73.1575 50.2138C73.1873 50.5697 73.3809 50.8486 73.7382 51.0504C74.1377 51.2478 74.5797 51.361 75.0644 51.3898L73.0528 58.3639C72.0083 58.5934 70.9112 58.7885 69.7616 58.9492C68.6013 59.1509 67.7155 59.244 67.1043 59.2285C65.8497 59.3204 64.8543 59.2056 64.1182 58.884C63.3928 58.5214 62.8941 58.1549 62.622 57.7845C61.914 58.1382 60.9845 58.5551 59.8332 59.0352C58.6928 59.4742 57.4576 59.8833 56.1277 60.2625C54.7979 60.6416 53.4792 60.8999 52.1716 61.0374ZM56.9223 53.2368C57.555 53.1703 58.1827 53.0445 58.8055 52.8593C59.4812 52.6287 60.12 52.382 60.7221 52.1192C61.3664 51.852 61.8787 51.6187 62.2591 51.4191L63.5811 46.3727L58.8496 47.289C57.8158 47.4774 56.976 47.8649 56.3301 48.4515C55.7372 48.9926 55.3225 49.7144 55.086 50.617C54.8496 51.5196 54.8724 52.2154 55.1544 52.7044C55.4473 53.1524 56.0366 53.3299 56.9223 53.2368Z" fill="#F4F6FF"/>
<path d="M85.3351 56.8336L93.8798 24.2169L83.5037 25.3075L85.8736 16.261L117.508 12.9361L115.138 21.9826L105.142 23.0333L96.597 55.6499L85.3351 56.8336Z" fill="#F4F6FF"/>
<path d="M110.104 54.2303L118.213 23.2752L129.032 22.1381L128.162 25.4613C128.976 24.857 129.923 24.2189 131.001 23.547C132.133 22.8296 133.285 22.1899 134.457 21.6278C135.63 21.0656 136.697 20.6743 137.657 20.4536L135.029 30.4848C134.122 30.6599 133.098 30.967 131.957 31.4061C130.817 31.8451 129.708 32.3208 128.63 32.833C127.595 33.3408 126.675 33.7965 125.872 34.2001L120.923 53.0931L110.104 54.2303Z" fill="#F4F6FF"/>
<path d="M142.009 51.5951C138.423 51.9719 135.96 51.4329 134.618 49.978C133.277 48.5231 133.057 46.0725 133.96 42.6262C134.605 40.1646 135.563 38.2286 136.835 36.8182C138.149 35.4033 139.783 34.3339 141.737 33.6099C143.69 32.886 145.948 32.3294 148.511 31.9404L155.014 30.8379L155.369 29.484C155.638 28.4584 155.488 27.7758 154.921 27.4365C154.396 27.0927 153.543 26.9829 152.362 27.107C151.096 27.24 149.651 27.4318 148.027 27.6823C146.403 27.9328 144.815 28.1994 143.265 28.4821C141.714 28.7648 140.353 29.0275 139.182 29.2703L140.784 21.9802C142.04 21.5689 143.507 21.1354 145.185 20.6797C146.906 20.2196 148.673 19.8144 150.488 19.4641C152.313 19.0728 154.006 18.7951 155.566 18.6311C158.392 18.3341 160.737 18.3869 162.601 18.7895C164.506 19.1877 165.787 20.0903 166.444 21.4975C167.143 22.9003 167.133 24.976 166.412 27.7249L162.995 40.7715C163.024 41.1275 163.218 41.4063 163.575 41.6082C163.975 41.8056 164.417 41.9187 164.901 41.9476L162.89 48.9216C161.845 49.1511 160.748 49.3462 159.599 49.5069C158.438 49.7087 157.553 49.8018 156.941 49.7862C155.687 49.8782 154.691 49.7634 153.955 49.4418C153.23 49.0791 152.731 48.7126 152.459 48.3423C151.751 48.6959 150.822 49.1128 149.67 49.5929C148.53 50.0319 147.295 50.4411 145.965 50.8202C144.635 51.1994 143.316 51.4577 142.009 51.5951ZM146.759 43.7945C147.392 43.728 148.02 43.6022 148.643 43.4171C149.318 43.1864 149.957 42.9398 150.559 42.677C151.203 42.4098 151.716 42.1764 152.096 41.9768L153.418 36.9305L148.687 37.8467C147.653 38.0352 146.813 38.4227 146.167 39.0092C145.574 39.5503 145.16 40.2721 144.923 41.1747C144.687 42.0773 144.709 42.7732 144.992 43.2622C145.284 43.7102 145.874 43.8876 146.759 43.7945Z" fill="#F4F6FF"/>
<path d="M171.376 47.7903L172.842 17.5335L184.42 16.3166L182.682 37.9841L184.074 37.8378L193.911 15.3191L204.856 14.1687L190.104 45.8219L171.376 47.7903Z" fill="#F4F6FF"/>
<path d="M213.852 44.044C210.14 44.4342 207.333 44.1906 205.43 43.3134C203.537 42.3952 202.412 40.8178 202.055 38.5812C201.74 36.3402 202.05 33.435 202.985 29.8656C203.963 26.1321 205.322 22.9769 207.064 20.4C208.848 17.8187 211.04 15.7929 213.64 14.3227C216.24 12.8525 219.29 11.9334 222.791 11.5655C227.811 11.0379 231.285 11.7899 233.214 13.8214C235.185 15.8485 235.52 19.3442 234.219 24.3085L232.359 29.5312L213.189 31.5461C212.801 33.1827 212.858 34.3736 213.36 35.1188C213.873 35.823 215.015 36.0819 216.787 35.8958C218.136 35.7539 219.639 35.576 221.295 35.3621C223.004 35.1027 224.691 34.8455 226.358 34.5906C228.066 34.3312 229.501 34.1006 230.661 33.8989L229.06 40.9495C227.91 41.2699 226.459 41.6418 224.707 42.0653C222.955 42.4888 221.13 42.8801 219.231 43.2393C217.332 43.5985 215.539 43.8667 213.852 44.044ZM214.754 25.3371L223.611 24.4061C224.159 22.3137 224.204 20.8927 223.744 20.1431C223.294 19.3525 222.311 19.0369 220.792 19.1965C219.232 19.3606 217.974 19.9316 217.021 20.9095C216.078 21.8465 215.322 23.3223 214.754 25.3371Z" fill="#F4F6FF"/>
</svg>
