<svg viewBox="0 0 24 24" fill="none" xmlns="http://www.w3.org/2000/svg">
<path fill-rule="evenodd" clip-rule="evenodd" d="M6.32247 3.76758C7.99173 2.6166 9.97143 2.00024 11.999 2.00024C14.0266 2.00024 16.0063 2.6166 17.6756 3.76758C19.3448 4.91856 20.6248 6.54977 21.3457 8.44489C22.0665 10.34 22.1943 12.4095 21.712 14.3789C21.233 16.3347 20.1749 18.1 18.6765 19.4441C18.6577 19.4622 18.6381 19.4797 18.6177 19.4965C16.7924 21.1121 14.438 22.0031 11.9996 21.9999C9.55137 22.0033 7.18766 21.1055 5.3592 19.4777C5.35383 19.4731 5.34852 19.4683 5.34328 19.4636C3.83338 18.117 2.76732 16.3441 2.28605 14.3789C1.80375 12.4095 1.93151 10.34 2.6524 8.44489C3.37328 6.54977 4.65322 4.91856 6.32247 3.76758ZM5.96918 17.2577C6.62168 16.6005 7.37921 16.0526 8.21305 15.6379C9.38947 15.0529 10.6857 14.7489 11.9995 14.7499C13.3134 14.7489 14.6096 15.0529 15.786 15.6379C16.6196 16.0525 17.377 16.6002 18.0293 17.2572C18.8656 16.2978 19.4644 15.1488 19.7694 13.9032C20.1552 12.3277 20.053 10.6721 19.4763 9.15596C18.8996 7.63987 17.8757 6.33489 16.5403 5.41411C15.2049 4.49333 13.6211 4.00024 11.999 4.00024C10.3769 4.00024 8.79319 4.49333 7.45778 5.41411C6.12238 6.33489 5.09843 7.63987 4.52172 9.15596C3.94502 10.6721 3.8428 12.3277 4.22864 13.9032C4.53375 15.149 5.13263 16.2983 5.96918 17.2577ZM16.5348 18.5917C15.2082 19.5066 13.6279 20.0023 12.0009 20H11.998C10.3709 20.0024 8.79054 19.5069 7.46385 18.5921C7.94525 18.1229 8.49813 17.7298 9.10364 17.4287C10.0031 16.9814 10.9941 16.749 11.9986 16.7499H12.0004C13.005 16.749 13.996 16.9814 14.8954 17.4287C15.5008 17.7298 16.0535 18.1226 16.5348 18.5917ZM11.9995 14.7499C11.9998 14.7499 12.0001 14.7499 12.0004 14.7499L11.9995 15.7499L11.9986 14.7499C11.9989 14.7499 11.9992 14.7499 11.9995 14.7499ZM11.9995 7.74995C11.4691 7.74995 10.9604 7.96066 10.5853 8.33574C10.2102 8.71081 9.99953 9.21952 9.99953 9.74995C9.99953 10.2804 10.2102 10.7891 10.5853 11.1642C10.9604 11.5392 11.4691 11.7499 11.9995 11.7499C12.53 11.7499 13.0387 11.5392 13.4137 11.1642C13.7888 10.7891 13.9995 10.2804 13.9995 9.74995C13.9995 9.21952 13.7888 8.71081 13.4137 8.33574C13.0387 7.96066 12.53 7.74995 11.9995 7.74995ZM9.1711 6.92152C9.92124 6.17138 10.9387 5.74995 11.9995 5.74995C13.0604 5.74995 14.0778 6.17138 14.828 6.92152C15.5781 7.67167 15.9995 8.68908 15.9995 9.74995C15.9995 10.8108 15.5781 11.8282 14.828 12.5784C14.0778 13.3285 13.0604 13.7499 11.9995 13.7499C10.9387 13.7499 9.92124 13.3285 9.1711 12.5784C8.42095 11.8282 7.99953 10.8108 7.99953 9.74995C7.99953 8.68908 8.42095 7.67167 9.1711 6.92152Z" fill="currentColor"/>
</svg>
